<svg xmlns="http://www.w3.org/2000/svg" viewBox="0 0 512 512">
  <rect x="16" y="16" width="480" height="480" rx="112" fill="#0A0A0A"/>
  <rect x="17" y="17" width="478" height="478" rx="111" fill="none" stroke="#FFFFFF" stroke-opacity="0.1" stroke-width="2"/>
  <g transform="translate(106 106) scale(12.5)" fill="none" stroke="#17C0FD" stroke-width="1.75" stroke-linecap="round" stroke-linejoin="round">
  <path d="M3 7V5a2 2 0 0 1 2-2h2" />
  <path d="M17 3h2a2 2 0 0 1 2 2v2" />
  <path d="M21 17v2a2 2 0 0 1-2 2h-2" />
  <path d="M7 21H5a2 2 0 0 1-2-2v-2" />
  <circle cx="12" cy="12" r="1" />
  <path d="M18.944 12.33a1 1 0 0 0 0-.66 7.5 7.5 0 0 0-13.888 0 1 1 0 0 0 0 .66 7.5 7.5 0 0 0 13.888 0" />
</g>
</svg>